<?xml version="1.0" encoding="utf-8"?>
<!-- Generator: Adobe Illustrator 27.1.1, SVG Export Plug-In . SVG Version: 6.00 Build 0)  -->
<svg version="1.1" id="Capa_1" xmlns="http://www.w3.org/2000/svg" xmlns:xlink="http://www.w3.org/1999/xlink" x="0px" y="0px"
	 viewBox="0 0 1366 643.1" style="enable-background:new 0 0 1366 643.1;" xml:space="preserve">
<style type="text/css">
	.st0{fill:#E7C7AC;}
</style>
<g>
	<g>
		<g>
			<path class="st0" d="M156.9,582.3c0,5.8-2.5,9.5-7.6,11l9.2,12.8H151l-8.4-11.9h-7.8v11.9h-6v-35.3h13.1c5.4,0,9.2,0.9,11.6,2.7
				S156.9,578.2,156.9,582.3z M149,587.3c1.2-1,1.8-2.7,1.8-5c0-2.3-0.6-3.9-1.9-4.8c-1.2-0.9-3.5-1.3-6.7-1.3h-7.6v12.6h7.4
				C145.5,588.8,147.8,588.3,149,587.3z"/>
			<path class="st0" d="M207.3,570.8v5.6h-18.9v9.3h16.9v5.3h-16.9v9.5h19.5v5.6h-25.4v-35.3H207.3z"/>
			<path class="st0" d="M243.1,575.4c-1.7,0-3.2,0.4-4.3,1.1c-1.1,0.7-1.7,1.8-1.7,3.2c0,1.4,0.6,2.5,1.7,3.3
				c1.1,0.8,3.5,1.6,7.1,2.5c3.6,0.9,6.4,2.1,8.2,3.7c1.8,1.6,2.8,3.9,2.8,7c0,3.1-1.2,5.6-3.5,7.5c-2.3,1.9-5.4,2.9-9.1,2.9
				c-5.5,0-10.4-1.9-14.7-5.7l3.7-4.5c3.6,3.1,7.3,4.6,11.1,4.6c1.9,0,3.4-0.4,4.6-1.2c1.1-0.8,1.7-1.9,1.7-3.3
				c0-1.4-0.5-2.4-1.6-3.2c-1.1-0.8-2.9-1.4-5.5-2.1s-4.6-1.2-5.9-1.7c-1.3-0.5-2.5-1.2-3.6-2c-2.1-1.6-3.1-4-3.1-7.3
				c0-3.3,1.2-5.8,3.6-7.6c2.4-1.8,5.3-2.7,8.8-2.7c2.3,0,4.5,0.4,6.7,1.1c2.2,0.7,4.1,1.8,5.8,3.1l-3.2,4.5c-1-0.9-2.5-1.7-4.2-2.3
				C246.6,575.7,244.9,575.4,243.1,575.4z"/>
			<path class="st0" d="M294.6,576.2v29.9h-6v-29.9h-10.7v-5.5h27.4v5.5H294.6z"/>
			<path class="st0" d="M333.7,598.1l-3.5,8h-6.4l15.6-35.3h6.4l15.6,35.3h-6.4l-3.5-8H333.7z M348.9,592.6l-6.4-14.6l-6.4,14.6
				H348.9z"/>
			<path class="st0" d="M391,598c1.6,1.9,3.8,2.8,6.6,2.8s5-0.9,6.6-2.8c1.6-1.9,2.4-4.4,2.4-7.7v-19.6h6v19.8c0,5.1-1.4,9-4.2,11.8
				c-2.8,2.7-6.4,4.1-10.8,4.1c-4.4,0-8-1.4-10.8-4.1c-2.8-2.7-4.2-6.7-4.2-11.8v-19.8h6v19.6C388.6,593.6,389.4,596.1,391,598z"/>
			<path class="st0" d="M467.1,582.3c0,5.8-2.5,9.5-7.6,11l9.2,12.8h-7.6l-8.4-11.9h-7.8v11.9h-6v-35.3H452c5.4,0,9.2,0.9,11.6,2.7
				C465.9,575.3,467.1,578.2,467.1,582.3z M459.1,587.3c1.2-1,1.8-2.7,1.8-5c0-2.3-0.6-3.9-1.9-4.8c-1.2-0.9-3.5-1.3-6.7-1.3h-7.6
				v12.6h7.4C455.6,588.8,457.9,588.3,459.1,587.3z"/>
			<path class="st0" d="M497.6,598.1l-3.5,8h-6.4l15.6-35.3h6.4l15.6,35.3h-6.4l-3.5-8H497.6z M512.8,592.6l-6.4-14.6l-6.4,14.6
				H512.8z"/>
			<path class="st0" d="M573.5,570.8h6v35.3H573l-20-25.8v25.8h-6v-35.3h6l20.5,26.4V570.8z"/>
			<path class="st0" d="M619.5,576.2v29.9h-6v-29.9h-10.7v-5.5h27.4v5.5H619.5z"/>
			<path class="st0" d="M678.5,570.8v5.6h-18.9v9.3h16.9v5.3h-16.9v9.5h19.5v5.6h-25.4v-35.3H678.5z"/>
			<path class="st0" d="M742.7,606.5c-3.3,0-6.1-0.9-8.4-2.8c-2.3-1.8-3.5-4.4-3.5-7.6c0-3.8,2.8-7.2,8.3-10.2
				c-1.4-1.6-2.4-2.9-2.9-3.9c-0.6-1-0.8-2.3-0.8-3.8c0-2.7,1-4.8,3-6.2c2-1.4,4.3-2.2,7-2.2s5,0.7,6.9,2.1c1.9,1.4,2.8,3.3,2.8,5.8
				c0,3.3-2.7,6.5-8.1,9.5c2.7,3.3,4.9,5.8,6.6,7.6c1-1.5,1.9-3.4,2.4-5.4l4.1,2.9c-0.9,2.3-1.9,4.4-3,6.1c1.4,1.4,3.1,3.1,5.2,5
				l-3.8,3.5l-4.6-4.6C750.9,605.2,747.1,606.5,742.7,606.5z M738.3,600.2c1.3,1,3,1.4,5.1,1.4s4.4-1,6.8-2.9
				c-3.4-3.6-6.1-6.6-8.1-9c-3.8,2.1-5.7,4.3-5.7,6.8C736.4,598,737,599.2,738.3,600.2z M745.3,574.4c-1.1,0-2.1,0.4-3,1.1
				c-0.9,0.7-1.3,1.5-1.3,2.5s0.2,1.8,0.7,2.6c0.5,0.8,1.2,1.8,2.4,3.2c3.8-1.9,5.7-3.6,5.7-5.3c0-1.3-0.4-2.4-1.3-3
				C747.4,574.8,746.4,574.4,745.3,574.4z"/>
			<path class="st0" d="M838.6,573.9c2.5,2.1,3.7,5.2,3.7,9.5c0,4.3-1.3,7.4-3.8,9.4c-2.5,2-6.4,3-11.6,3h-6.3v10.4h-6v-35.3h12.1
				C832.3,570.8,836.2,571.8,838.6,573.9z M834.4,588.5c1.2-1.3,1.8-3.1,1.8-5.6c0-2.4-0.8-4.2-2.3-5.2c-1.5-1-3.9-1.5-7.1-1.5h-6.1
				v14.2h6.9C831,590.3,833.2,589.7,834.4,588.5z"/>
			<path class="st0" d="M871.3,598.1l-3.5,8h-6.4l15.6-35.3h6.4l15.6,35.3h-6.4l-3.5-8H871.3z M886.5,592.6l-6.4-14.6l-6.4,14.6
				H886.5z"/>
			<path class="st0" d="M947.2,570.8h6v35.3h-6.5l-20-25.8v25.8h-6v-35.3h6l20.5,26.4V570.8z"/>
			<path class="st0" d="M984.9,598.1l-3.5,8H975l15.6-35.3h6.4l15.6,35.3h-6.4l-3.5-8H984.9z M1000.1,592.6l-6.4-14.6l-6.4,14.6
				H1000.1z"/>
			<path class="st0" d="M1061.1,575.4c3.4,3.1,5.1,7.4,5.1,12.9c0,5.5-1.6,9.8-5,13c-3.3,3.2-8.4,4.8-15.2,4.8h-11.7v-35.3h12.1
				C1052.8,570.8,1057.7,572.3,1061.1,575.4z M1060.1,588.4c0-8.1-4.6-12.1-13.9-12.1h-6v24.2h6.6c4.3,0,7.6-1,9.8-3.1
				C1059,595.4,1060.1,592.4,1060.1,588.4z"/>
			<path class="st0" d="M1115.6,570.8v5.6h-18.8v9.3h16.9v5.3h-16.9v9.5h19.5v5.6h-25.4v-35.3H1115.6z"/>
			<path class="st0" d="M1169,582.3c0,5.8-2.5,9.5-7.6,11l9.3,12.8h-7.6l-8.4-11.9h-7.8v11.9h-6v-35.3h13.1c5.4,0,9.2,0.9,11.6,2.7
				S1169,578.2,1169,582.3z M1161,587.3c1.2-1,1.8-2.7,1.8-5c0-2.3-0.6-3.9-1.9-4.8c-1.2-0.9-3.5-1.3-6.7-1.3h-7.6v12.6h7.4
				C1157.5,588.8,1159.8,588.3,1161,587.3z"/>
			<path class="st0" d="M1194.5,570.8h6v35.3h-6V570.8z M1199.9,567.9h-5.2l5.4-7.3l6,2.5L1199.9,567.9z"/>
			<path class="st0" d="M1232.2,598.1l-3.5,8h-6.4l15.6-35.3h6.4l15.6,35.3h-6.4l-3.5-8H1232.2z M1247.4,592.6L1241,578l-6.4,14.6
				H1247.4z"/>
		</g>
		<g>
			<path class="st0" d="M525.8,363.6c-20.3-32-31.1-68.9-31.1-106.9c0-110.1,89.5-199.6,199.6-199.6c110.1,0,199.6,89.5,199.6,199.6
				c0,38-10.8,74.9-31.1,106.9h24.6C905.5,331,915,294.4,915,256.7C915,135,816,36,694.3,36c-121.7,0-220.7,99-220.7,220.7
				c0,37.6,9.5,74.3,27.6,106.9H525.8z"/>
		</g>
		<g>
			<g>
				<path class="st0" d="M645.9,500.8L645.9,500.8l-0.1-51.6l0.7,0.1h12.2c4.1,0,7.9,0.7,11.4,2.2c3.5,1.5,6.4,3.4,8.6,5.8
					c2.3,2.4,4,5.2,5.3,8.2c1.3,3.1,2,6.2,2,9.4c0,3.3-0.5,6.5-1.7,9.6c-1.2,3.1-2.9,5.8-5.1,8.3c-2.4,2.5-5.3,4.5-8.9,5.9
					c-3.5,1.4-7.4,2.1-11.7,2.1L645.9,500.8L645.9,500.8z M654.9,491.9h3.9c6,0,10.7-1.7,14-5.2c2.9-3.1,4.4-6.9,4.4-11.5
					c0-2.2-0.4-4.3-1.2-6.2c-0.7-2-1.8-3.8-3.2-5.4c-1.4-1.6-3.3-2.9-5.7-3.8c-2.4-0.9-5.1-1.4-8.2-1.4h-3.9V491.9z"/>
				<path class="st0" d="M726.6,466.8v9c-2.1,0-4.1,0.1-5.8,0.4c-1.7,0.3-3,0.6-3.8,0.9c-0.9,0.3-2.1,0.8-3.7,1.4
					c-2.5,1-4.7,1.8-6.3,2.2v11.2h24.4v9H698v-0.4v-8.6v-10.1v-9v-14.6v-8.6v-0.4h32.2v9H707v13.1c0.4-0.2,1.4-0.6,3-1.2
					c1.6-0.6,3-1.2,4.2-1.6c1.3-0.4,3-0.8,5.3-1.2C721.7,467,724.1,466.8,726.6,466.8z"/>
				<path class="st0" d="M743.3,449.2h9v42.6h29.4v9h-29.4h-8.5h-0.5V449.2z"/>
			</g>
			<g>
				<path class="st0" d="M890.8,423.7c9.6,0,18.2,3.1,25.6,9.3l5.8,4.8l-9.6,11.7l-5.9-4.8c-5.5-4.6-11.6-6.6-18.3-6
					c-6.7,0.6-12.4,3.8-17.2,9.4c-4.8,5.7-7.1,12.4-7,20.2c0.1,7.8,2.5,14.5,7.4,20c4.8,5.4,10.6,8.4,17.4,8.8
					c6.8,0.5,12.8-1.5,18.2-6.2l5.7-4.9l9.9,11.5l-5.7,4.9c-4.1,3.5-8.7,6.2-13.7,7.9c-5.1,1.7-10.3,2.4-15.6,2
					c-5.3-0.4-10.4-1.8-15.1-4.3c-4.8-2.4-8.9-5.7-12.6-9.8c-7.4-8.4-11.1-18.4-11.3-29.8c-0.1-11.5,3.4-21.5,10.7-30.1
					c4-4.8,8.8-8.4,14.2-10.9C879.3,424.9,884.9,423.7,890.8,423.7z"/>
				<path class="st0" d="M978.6,424.5h16.3l33.1,87.2h-16.3l-5.5-14.7c-5.7,0.4-11.3-0.1-16.9-1.5c-5.6-1.4-11.9-3.5-18.9-6.3
					l-8.5,22.5h-16.3l10.7-28.1c-12.4-4.7-23-6.8-32-6.2l-0.8-14.9c5.6-0.5,11.4-0.1,17.4,1.4c6,1.4,12.8,3.6,20.4,6.6L978.6,424.5z
					 M975.2,476.1c11,4.3,19.5,6.6,25.6,6.8l-14.1-37.1L975.2,476.1z"/>
				<path class="st0" d="M1048.4,424.8h15.2v49c0,4.5,0.6,8.4,1.9,11.9c1.2,3.4,2.9,6.1,5,8c2.1,1.9,4.4,3.4,6.9,4.3
					s5.2,1.4,8.1,1.4c2.9,0,5.6-0.5,8.1-1.4s4.8-2.4,7-4.3c2.1-1.9,3.8-4.6,5-8c1.2-3.4,1.8-7.4,1.8-11.9v-49h15.3v49
					c0,6.2-1.1,11.9-3.2,17.1c-2.1,5.2-5,9.5-8.4,12.9c-3.5,3.4-7.4,6-11.9,7.9s-9,2.9-13.6,2.9s-9.2-1-13.6-2.9
					c-4.4-1.9-8.4-4.6-11.9-7.9c-3.5-3.4-6.3-7.7-8.4-12.9c-2.1-5.2-3.2-10.9-3.2-17.1V424.8z"/>
				<path class="st0" d="M1195,423.7c9.6,0,18.2,3.1,25.6,9.3l5.8,4.8l-9.6,11.7l-5.9-4.8c-5.5-4.6-11.6-6.6-18.3-6
					c-6.7,0.6-12.4,3.8-17.2,9.4c-4.8,5.7-7.1,12.4-7,20.2c0.1,7.8,2.5,14.5,7.4,20c4.8,5.4,10.6,8.4,17.4,8.8
					c6.8,0.5,12.8-1.5,18.2-6.2l5.7-4.9l9.9,11.5l-5.7,4.9c-4.1,3.5-8.7,6.2-13.7,7.9c-5.1,1.7-10.3,2.4-15.6,2
					c-5.3-0.4-10.4-1.8-15.1-4.3c-4.8-2.4-8.9-5.7-12.6-9.8c-7.4-8.4-11.1-18.4-11.3-29.8c-0.1-11.5,3.4-21.5,10.7-30.1
					c4-4.8,8.8-8.4,14.2-10.9C1183.5,424.9,1189.1,423.7,1195,423.7z"/>
				<path class="st0" d="M1282.8,424.5h16.3l33.1,87.2h-16.3l-5.5-14.7c-5.7,0.4-11.3-0.1-16.9-1.5c-5.6-1.4-11.9-3.5-18.9-6.3
					l-8.5,22.5h-16.3l10.7-28.1c-12.4-4.7-23-6.8-32-6.2l-0.8-14.9c5.6-0.5,11.4-0.1,17.4,1.4c6,1.4,12.8,3.6,20.4,6.6L1282.8,424.5
					z M1279.4,476.1c11,4.3,19.5,6.6,25.6,6.8l-14.1-37.1L1279.4,476.1z"/>
			</g>
			<g>
				<path class="st0" d="M33.9,425.4h15.2c0,4.9,1.5,10.1,4.6,15.5c3.1,5.5,7.5,11.8,13.4,19.1c0.5,0.7,1.7,2.1,3.4,4.2
					c1.7,2.1,3,3.7,3.8,4.8c0.8,1.1,1.9,2.5,3.2,4.2c1.3,1.7,2.4,3.3,3.3,4.8c0.9-1.5,2-3.1,3.3-4.8c1.2-1.7,2.3-3.1,3.2-4.2
					c0.9-1.1,2.1-2.7,3.8-4.8c1.7-2.1,2.8-3.5,3.4-4.2c5.8-7.3,10.2-13.7,13.3-19.1c3.1-5.5,4.6-10.6,4.6-15.5h15.2v87h-15.2v-50.6
					c-1.3,1.7-3.4,4.3-6,7.7c-5.9,7.4-10.4,13.5-13.4,18.4c-3,4.9-4.6,9.2-4.6,12.7H73.1c0-3.6-1.5-7.8-4.6-12.7
					c-3.1-4.9-7.5-11.1-13.3-18.4c-2.7-3.4-4.8-6-6.1-7.7v50.6H33.9V425.4z"/>
				<path class="st0" d="M142.5,425.4h15.2v87h-15.2V425.4z"/>
				<path class="st0" d="M172.8,425.4h29.6c4.5,0,8.7,0.8,12.5,2.5c3.9,1.6,7.1,3.8,9.6,6.5c2.5,2.7,4.5,5.7,6,9.1
					c1.4,3.4,2.2,6.9,2.2,10.4c0,5-1.3,9.7-4,14.2c-2.7,4.5-6.3,8-11,10.6c0.5,0.8,1.3,2,2.2,3.5c0.9,1.5,1.6,2.6,1.9,3.2
					c3.1,4.8,5.8,8.1,8.1,10c2.9,2.3,6.1,3.5,9.6,3.5v15.2c-7.2,0-13.7-2.3-19.4-7c-3.5-2.9-7.2-7.4-11.1-13.5
					c-4-6.1-6.4-9.7-7.4-10.9c-0.1-0.1-0.2-0.2-0.3-0.3h-13.5v30.1h-15.2v-71.9V426V425.4z M187.9,467.1h14.5
					c5.4,0,9.2-1.2,11.6-3.7c2.3-2.5,3.5-5.6,3.5-9.5c0-3.9-1.2-7-3.5-9.5c-2.3-2.5-6.2-3.8-11.6-3.8h-14.5V467.1z"/>
				<path class="st0" d="M283.3,425.4h16.3l33.1,87.2h-16.3l-7.1-18.9c-1.5,0.2-3,0.3-4.6,0.4c-1.6,0.1-3,0.1-4.2,0.2
					c-1.2,0-2.7,0-4.5-0.1c-1.8-0.1-3.2-0.2-4-0.3c-0.9-0.1-2.3-0.2-4.3-0.5c-2-0.2-3.3-0.4-3.9-0.5c-0.6-0.1-2-0.3-4.2-0.7
					c-2.2-0.3-3.5-0.5-3.9-0.5c-0.4-0.1-0.8-0.1-1.2-0.2l-7.9,21h-16.3L283.3,425.4z M303.6,478.9l-12.2-32.2L279.9,477
					c3.9,0.6,6.7,1,8.6,1.3c1.8,0.2,4.2,0.4,7.1,0.6C298.5,479.1,301.2,479.1,303.6,478.9z"/>
				<path class="st0" d="M344.7,512.3h-0.1v-86.9l1.2,0.1h20.6c6.9,0,13.3,1.2,19.1,3.7c5.9,2.5,10.7,5.8,14.5,9.8
					c3.8,4.1,6.8,8.7,9,13.9c2.2,5.2,3.3,10.5,3.4,15.9c0.1,5.6-0.9,10.9-2.8,16.1c-1.9,5.2-4.8,9.8-8.6,13.9c-4,4.2-9,7.5-14.9,9.9
					c-5.9,2.4-12.5,3.6-19.6,3.6h-21.7V512.3z M359.9,497.2h6.5c10.1,0,18-2.9,23.5-8.8c5-5.2,7.4-11.7,7.3-19.4
					c-0.1-3.7-0.7-7.2-2-10.5c-1.2-3.3-3.1-6.3-5.5-9c-2.4-2.7-5.6-4.9-9.6-6.4c-4-1.6-8.6-2.4-13.8-2.4h-6.5V497.2z"/>
				<path class="st0" d="M446.1,431.7c6.4-4,13.4-6,21.1-6c7.6,0,14.6,2,21.1,6c6.4,4,11.5,9.4,15.2,16.3c3.7,6.8,5.5,14.2,5.5,22.1
					c0,5.9-1,11.5-3.1,16.9c-2.1,5.4-5.1,10.2-8.9,14.3c-3.9,4.2-8.4,7.5-13.6,9.8c-5.2,2.3-10.5,3.5-16.1,3.5
					c-5.6,0-11-1.2-16.1-3.5c-5.2-2.3-9.7-5.6-13.6-9.8c-3.9-4.2-6.9-8.9-8.9-14.3c-2.1-5.4-3.1-11-3.1-16.9
					c0-7.9,1.8-15.3,5.5-22.1C434.6,441.1,439.7,435.7,446.1,431.7z M485.9,449.3c-5.2-5.7-11.5-8.5-18.7-8.5
					c-7.3,0-13.5,2.8-18.7,8.5c-5.2,5.7-7.8,12.6-7.8,20.8c0,4,0.7,7.8,2.1,11.4c1.4,3.7,3.4,6.9,5.9,9.6c5.2,5.6,11.3,8.3,18.5,8.3
					c7.2,0,13.4-2.8,18.6-8.3c2.5-2.7,4.4-5.9,5.8-9.6c1.4-3.7,2.1-7.5,2.1-11.4C493.7,461.9,491.1,455,485.9,449.3z"/>
				<path class="st0" d="M522,425.4h29.6c4.5,0,8.7,0.8,12.5,2.5c3.9,1.6,7.1,3.8,9.6,6.5c2.5,2.7,4.5,5.7,6,9.1
					c1.4,3.4,2.2,6.9,2.2,10.4c0,5-1.3,9.7-4,14.2c-2.7,4.5-6.3,8-11,10.6c0.5,0.8,1.3,2,2.2,3.5c0.9,1.5,1.6,2.6,1.9,3.2
					c3.1,4.8,5.8,8.1,8.1,10c2.9,2.3,6.1,3.5,9.6,3.5v15.2c-7.2,0-13.7-2.3-19.4-7c-3.5-2.9-7.2-7.4-11.1-13.5
					c-4-6.1-6.4-9.7-7.4-10.9c-0.1-0.1-0.2-0.2-0.3-0.3h-13.5v30.1H522v-71.9V426V425.4z M537.2,467.1h14.5c5.4,0,9.2-1.2,11.6-3.7
					c2.3-2.5,3.5-5.6,3.5-9.5c0-3.9-1.2-7-3.5-9.5c-2.3-2.5-6.2-3.8-11.6-3.8h-14.5V467.1z"/>
			</g>
		</g>
		<g>
			<rect x="33.9" y="538.1" class="st0" width="1298.2" height="4"/>
		</g>
	</g>
	<g>
		<g>
			<path class="st0" d="M762.3,143.5c7.6-4,15.4-6.8,23.2-8.3c0.5-0.1,1-0.2,1.5-0.2c-26-18.9-58-30-92.7-30c-30,0-58.1,8.4-82,22.9
				c16.9,0.5,38.4,3.8,63.7,12.8C725.5,158.2,752.8,148.5,762.3,143.5z"/>
		</g>
		<g>
			<path class="st0" d="M588.4,195.3c28,4.4,56,20.9,73.2,32c24.8-26.1,29.7-26.1,32.6-26.1c9.3,0,20,14,23.1,18.3
				c1.3,1.8,3.1,3.2,5.3,4c7.9-5.2,54-34.6,86.8-31.2c11.6,1.2,21.5,4,29.7,7.3c-8.8-20.2-21.7-38.1-37.7-52.9
				c-4.6,0.1-9.1,0.6-13.6,1.4c-6.4,1.2-12.9,3.5-19.3,6.9c-6.4,3.4-19.8,8.7-40.7,8.7c-14.9,0-33.6-2.7-56.3-10.7
				c-35.2-12.5-62.1-13.1-78.9-11.2c-17.7,14.9-32.1,33.6-42,54.9C561.7,194.4,574.8,193.2,588.4,195.3z"/>
		</g>
		<g>
			<path class="st0" d="M571.2,265.5l5.9-1.3c0.6-0.1,1.1-0.4,1.5-0.9c19.8-22,25.7-21.6,28.5-21.5c5.8,0.3,15.8,5.6,21.7,9
				c1.3-1.2,3.2-3.2,6.1-6.5c3.2-3.6,6.9-6.4,11.2-8.4l2.4-1.1c-16.4-10.2-39.6-22.8-62.2-26.3c-15.6-2.5-30.6,0.4-41.9,4
				c-5.4,15.9-8.3,32.9-8.3,50.6c0,6.8,0.4,13.6,1.3,20.2l23.9-13.9C564.5,267.5,567.8,266.2,571.2,265.5z"/>
		</g>
		<g>
			<path class="st0" d="M737.6,230c2.6,1.6,5.2,3.6,7.7,6c4.2,4.1,7.3,8.9,9.9,13.2c6.1,9.8,7.9,11.2,12.7,9.5
				c1.1-0.6,6.9-3.9,20-15.2c2.8-3.6,9.4-8.4,18.9-7.3c1.1,0.1,2.2,0.3,3.4,0.4c6.9,0.9,14.7,1.9,18.5-1.5c3.5-3,8.5-3.9,14.2-2.6
				c2.2,0.5,4.6,1.4,7,2.6c-1-5.9-2.4-11.7-4.1-17.3c-8.5-5.1-20.9-10.3-37.7-12.1C785.4,203.3,752.9,220.8,737.6,230z"/>
		</g>
		<g>
			<path class="st0" d="M641.8,361c2.8-1.2,4.7-2.4,6-3.3c1.3-1,0.7-3.2-1-3.4c-11.6-1.3-48.4-6.1-43.3-16.3c5-10,30.8-14.5,55-22.7
				c5.9-2-29.2-10-30.4-12.1c-6.1-10.4,92-3,104.4,15.6c0,0,7.4,6.6-30.1,14.4c-1.5,0.3-1.8,2.3-0.5,3.1c4.2,2.4,13.1,1.5,56.4,4.5
				c44.3,3,59.3,13.8,39.4,20.2h20.7c21.3-26.9,34-60.9,34-98c0-3.3-0.1-6.5-0.3-9.7c-5-5.6-12.3-8.9-14.7-8.1
				c-8.3,7.2-19.7,5.7-28.8,4.6c-1.1-0.1-2.1-0.3-3.2-0.4c-4.4-0.5-6.6,2-7,2.5l-0.5,0.8l-0.6,0.4c-16.4,14.2-22.8,17.4-23.9,17.9
				l-0.4,0.2c-15.9,5.8-23.4-6.1-28.9-14.8c-2.4-3.8-4.9-7.8-7.9-10.7c-5.4-5.2-11.3-7.5-15.4-8.6c-5.8-1.5-10.8-4.9-14.2-9.7
				c-4.4-6.2-9.5-11-11.9-12.4c-2.8,1.8-10.2,7.8-23.7,22.1c-2.4,2.5-5.2,4.6-8.4,6l-10.7,4.9c-2.6,1.2-4.9,2.9-6.8,5.1
				c-9.5,10.9-12.8,12.5-16.4,12.2c-1.2-0.1-2.2-0.5-3.2-1.1c-7.2-4.4-15.4-8.4-18.4-9.1c-2.3,1.1-8.6,6.2-18.4,17
				c-2.3,2.5-5.2,4.2-8.5,5l-5.9,1.3c-2.1,0.5-4.1,1.3-6,2.3l-28.2,16.4c5.2,23.7,15.8,45.4,30.3,63.8H641.8z"/>
		</g>
	</g>
</g>
</svg>
