<?xml version="1.0" encoding="utf-8"?>
<!-- Generator: Adobe Illustrator 27.1.1, SVG Export Plug-In . SVG Version: 6.00 Build 0)  -->
<svg version="1.1" id="Capa_1" xmlns="http://www.w3.org/2000/svg" xmlns:xlink="http://www.w3.org/1999/xlink" x="0px" y="0px"
	 viewBox="0 0 1366 643.1" style="enable-background:new 0 0 1366 643.1;" xml:space="preserve">
<style type="text/css">
	.st0{fill:#4F362C;}
</style>
<g>
	<g>
		<g>
			<path class="st0" d="M159,581.5c0,5.8-2.5,9.5-7.6,11l9.2,12.8h-7.6l-8.4-11.8h-7.8v11.8h-5.9v-35.2H144c5.4,0,9.2,0.9,11.5,2.7
				C157.9,574.6,159,577.5,159,581.5z M151.1,586.5c1.2-1,1.8-2.7,1.8-5c0-2.3-0.6-3.9-1.9-4.7c-1.2-0.9-3.5-1.3-6.6-1.3h-7.6v12.6
				h7.4C147.7,588.1,149.9,587.6,151.1,586.5z"/>
			<path class="st0" d="M209.2,570.1v5.6h-18.8v9.3h16.9v5.3h-16.9v9.4h19.4v5.6h-25.3v-35.2H209.2z"/>
			<path class="st0" d="M244.9,574.7c-1.7,0-3.1,0.4-4.3,1.1c-1.1,0.7-1.7,1.8-1.7,3.2c0,1.4,0.6,2.5,1.7,3.3
				c1.1,0.8,3.5,1.6,7.1,2.4c3.6,0.9,6.3,2.1,8.2,3.7c1.8,1.6,2.7,3.9,2.7,7c0,3.1-1.2,5.6-3.5,7.5c-2.3,1.9-5.4,2.9-9.1,2.9
				c-5.5,0-10.4-1.9-14.7-5.7l3.7-4.5c3.6,3.1,7.3,4.6,11.1,4.6c1.9,0,3.4-0.4,4.6-1.2c1.1-0.8,1.7-1.9,1.7-3.3s-0.5-2.4-1.6-3.2
				c-1.1-0.8-2.9-1.4-5.5-2.1c-2.6-0.6-4.5-1.2-5.9-1.7c-1.3-0.5-2.5-1.2-3.6-2c-2.1-1.6-3.1-4-3.1-7.3s1.2-5.8,3.5-7.5
				s5.3-2.6,8.8-2.6c2.2,0,4.5,0.4,6.7,1.1c2.2,0.7,4.1,1.8,5.7,3.1l-3.2,4.5c-1-0.9-2.5-1.7-4.2-2.3
				C248.4,575,246.7,574.7,244.9,574.7z"/>
			<path class="st0" d="M296.2,575.5v29.8h-5.9v-29.8h-10.7v-5.4h27.3v5.4H296.2z"/>
			<path class="st0" d="M335.2,597.3l-3.5,8h-6.3l15.5-35.2h6.3l15.5,35.2h-6.3l-3.5-8H335.2z M350.4,591.8l-6.4-14.5l-6.4,14.5
				H350.4z"/>
			<path class="st0" d="M392.3,597.2c1.6,1.9,3.8,2.8,6.5,2.8s4.9-0.9,6.5-2.8c1.6-1.9,2.4-4.4,2.4-7.7v-19.5h5.9v19.7
				c0,5.1-1.4,9-4.2,11.7c-2.8,2.7-6.4,4.1-10.7,4.1c-4.4,0-7.9-1.4-10.7-4.1c-2.8-2.7-4.2-6.6-4.2-11.7v-19.7h5.9v19.5
				C389.9,592.8,390.7,595.4,392.3,597.2z"/>
			<path class="st0" d="M468,581.5c0,5.8-2.5,9.5-7.6,11l9.2,12.8h-7.6l-8.4-11.8h-7.8v11.8h-5.9v-35.2H453c5.4,0,9.2,0.9,11.5,2.7
				C466.9,574.6,468,577.5,468,581.5z M460.1,586.5c1.2-1,1.8-2.7,1.8-5c0-2.3-0.6-3.9-1.9-4.7c-1.2-0.9-3.5-1.3-6.6-1.3h-7.6v12.6
				h7.4C456.6,588.1,458.9,587.6,460.1,586.5z"/>
			<path class="st0" d="M498.5,597.3l-3.5,8h-6.3l15.5-35.2h6.3l15.5,35.2h-6.3l-3.5-8H498.5z M513.7,591.8l-6.4-14.5l-6.4,14.5
				H513.7z"/>
			<path class="st0" d="M574.1,570.1h5.9v35.2h-6.4l-19.9-25.7v25.7h-5.9v-35.2h5.9l20.4,26.3V570.1z"/>
			<path class="st0" d="M620,575.5v29.8H614v-29.8h-10.7v-5.4h27.3v5.4H620z"/>
			<path class="st0" d="M678.7,570.1v5.6h-18.8v9.3h16.9v5.3h-16.9v9.4h19.4v5.6H654v-35.2H678.7z"/>
			<path class="st0" d="M742.7,605.7c-3.3,0-6.1-0.9-8.4-2.7c-2.3-1.8-3.5-4.3-3.5-7.5c0-3.8,2.8-7.2,8.3-10.1
				c-1.4-1.6-2.3-2.9-2.9-3.9c-0.6-1-0.8-2.3-0.8-3.8c0-2.7,1-4.8,3-6.2c2-1.4,4.3-2.2,7-2.2s5,0.7,6.8,2.1c1.9,1.4,2.8,3.3,2.8,5.8
				c0,3.3-2.7,6.5-8.1,9.4c2.7,3.3,4.9,5.8,6.5,7.6c1-1.5,1.8-3.3,2.4-5.4l4.1,2.9c-0.9,2.3-1.9,4.3-3,6.1c1.3,1.4,3.1,3,5.1,5
				l-3.8,3.5l-4.6-4.6C750.8,604.3,747.1,605.7,742.7,605.7z M738.3,599.4c1.3,1,3,1.4,5.1,1.4s4.4-1,6.7-2.9
				c-3.4-3.6-6.1-6.5-8.1-9c-3.8,2-5.7,4.3-5.7,6.7C736.4,597.2,737,598.4,738.3,599.4z M745.3,573.7c-1.1,0-2.1,0.4-3,1.1
				c-0.9,0.7-1.3,1.5-1.3,2.5c0,0.9,0.2,1.8,0.7,2.5c0.5,0.8,1.2,1.8,2.3,3.1c3.8-1.9,5.7-3.6,5.7-5.2c0-1.3-0.4-2.3-1.3-3
				C747.4,574,746.4,573.7,745.3,573.7z"/>
			<path class="st0" d="M838.3,573.2c2.4,2,3.7,5.2,3.7,9.5s-1.2,7.4-3.7,9.4c-2.5,2-6.3,3-11.5,3h-6.2v10.3h-5.9v-35.2h12.1
				C831.9,570.1,835.8,571.1,838.3,573.2z M834.1,587.7c1.2-1.3,1.8-3.1,1.8-5.5c0-2.4-0.8-4.2-2.3-5.2c-1.5-1-3.9-1.5-7.1-1.5h-6
				v14.1h6.9C830.6,589.6,832.9,589,834.1,587.7z"/>
			<path class="st0" d="M870.8,597.3l-3.5,8h-6.3l15.5-35.2h6.3l15.5,35.2H892l-3.5-8H870.8z M886,591.8l-6.4-14.5l-6.4,14.5H886z"
				/>
			<path class="st0" d="M946.5,570.1h5.9v35.2h-6.4L926,579.6v25.7h-5.9v-35.2h5.9l20.4,26.3V570.1z"/>
			<path class="st0" d="M984,597.3l-3.5,8h-6.3l15.5-35.2h6.3l15.5,35.2h-6.3l-3.5-8H984z M999.2,591.8l-6.4-14.5l-6.4,14.5H999.2z"
				/>
			<path class="st0" d="M1059.9,574.7c3.4,3.1,5.1,7.3,5.1,12.8c0,5.5-1.6,9.8-4.9,13c-3.3,3.2-8.3,4.8-15.1,4.8h-11.7v-35.2h12.1
				C1051.7,570.1,1056.5,571.6,1059.9,574.7z M1059,587.7c0-8.1-4.6-12.1-13.9-12.1h-5.9v24.1h6.6c4.3,0,7.5-1,9.8-3
				C1057.9,594.6,1059,591.6,1059,587.7z"/>
			<path class="st0" d="M1114.2,570.1v5.6h-18.8v9.3h16.9v5.3h-16.9v9.4h19.4v5.6h-25.3v-35.2H1114.2z"/>
			<path class="st0" d="M1167.4,581.5c0,5.8-2.5,9.5-7.6,11l9.2,12.8h-7.6l-8.4-11.8h-7.8v11.8h-5.9v-35.2h13.1
				c5.4,0,9.2,0.9,11.5,2.7C1166.3,574.6,1167.4,577.5,1167.4,581.5z M1159.5,586.5c1.2-1,1.8-2.7,1.8-5c0-2.3-0.6-3.9-1.9-4.7
				c-1.2-0.9-3.5-1.3-6.7-1.3h-7.6v12.6h7.4C1156,588.1,1158.3,587.6,1159.5,586.5z"/>
			<path class="st0" d="M1192.9,570.1h5.9v35.2h-5.9V570.1z M1198.3,567.2h-5.1l5.3-7.3l5.9,2.5L1198.3,567.2z"/>
			<path class="st0" d="M1230.4,597.3l-3.5,8h-6.3l15.5-35.2h6.3l15.5,35.2h-6.3l-3.5-8H1230.4z M1245.6,591.8l-6.4-14.5l-6.4,14.5
				H1245.6z"/>
		</g>
		<g>
			<path class="st0" d="M526.5,363.7c-20.3-31.9-31-68.6-31-106.5c0-109.7,89.2-198.9,198.9-198.9c109.7,0,198.9,89.2,198.9,198.9
				c0,37.9-10.7,74.6-31,106.5h24.5c18.1-32.5,27.5-69,27.5-106.5c0-121.3-98.7-219.9-219.9-219.9c-121.3,0-219.9,98.7-219.9,219.9
				c0,37.5,9.5,74,27.5,106.5H526.5z"/>
		</g>
		<g>
			<g>
				<path class="st0" d="M646.3,500.4L646.3,500.4l-0.1-51.4l0.7,0.1h12.2c4.1,0,7.9,0.7,11.3,2.2c3.5,1.5,6.3,3.4,8.6,5.8
					c2.3,2.4,4,5.2,5.3,8.2c1.3,3.1,2,6.2,2,9.4c0,3.3-0.5,6.5-1.7,9.5c-1.1,3.1-2.9,5.8-5.1,8.2c-2.4,2.5-5.3,4.5-8.8,5.9
					c-3.5,1.4-7.4,2.1-11.6,2.1L646.3,500.4L646.3,500.4z M655.3,491.5h3.9c6,0,10.6-1.7,13.9-5.2c2.9-3.1,4.4-6.9,4.3-11.5
					c0-2.2-0.4-4.2-1.2-6.2c-0.7-2-1.8-3.7-3.2-5.3c-1.4-1.6-3.3-2.9-5.7-3.8s-5.1-1.4-8.1-1.4h-3.9V491.5z"/>
				<path class="st0" d="M726.7,466.5v9c-2.1,0-4.1,0.1-5.8,0.4c-1.7,0.3-3,0.6-3.8,0.9c-0.9,0.3-2.1,0.8-3.7,1.4
					c-2.5,1-4.6,1.8-6.3,2.2v11.1h24.3v9h-33.3v-0.4v-8.6v-10v-9v-14.5v-8.6V449h32.1v9h-23.1V471c0.4-0.2,1.4-0.6,2.9-1.2
					c1.6-0.6,3-1.2,4.2-1.6c1.2-0.4,3-0.8,5.3-1.2C721.8,466.7,724.2,466.5,726.7,466.5z"/>
				<path class="st0" d="M743.3,449h9v42.5h29.3v9h-29.3h-8.5h-0.5V449z"/>
			</g>
			<g>
				<path class="st0" d="M890.3,423.5c9.6,0,18.1,3.1,25.5,9.3l5.8,4.8l-9.6,11.6l-5.9-4.8c-5.5-4.6-11.6-6.6-18.2-6
					c-6.7,0.6-12.4,3.8-17.1,9.4c-4.7,5.6-7.1,12.4-7,20.1c0.1,7.8,2.5,14.4,7.4,20c4.7,5.4,10.5,8.3,17.3,8.8
					c6.7,0.5,12.8-1.5,18.1-6.2l5.7-4.9l9.9,11.4l-5.7,4.9c-4.1,3.5-8.6,6.2-13.7,7.9c-5,1.7-10.2,2.4-15.5,2
					c-5.3-0.4-10.3-1.8-15.1-4.3c-4.7-2.4-8.9-5.7-12.5-9.8c-7.3-8.4-11.1-18.3-11.2-29.7c-0.1-11.4,3.4-21.4,10.6-30
					c4-4.7,8.7-8.4,14.2-10.9C878.8,424.8,884.4,423.5,890.3,423.5z"/>
				<path class="st0" d="M977.7,424.3H994l32.9,86.9h-16.2l-5.5-14.6c-5.7,0.4-11.3-0.1-16.9-1.5c-5.6-1.4-11.9-3.5-18.9-6.3
					l-8.5,22.4h-16.2l10.6-28c-12.4-4.7-23-6.7-31.8-6.2l-0.8-14.8c5.5-0.5,11.3-0.1,17.3,1.4s12.8,3.6,20.3,6.6L977.7,424.3z
					 M974.3,475.8c10.9,4.3,19.5,6.5,25.5,6.8l-14-37L974.3,475.8z"/>
				<path class="st0" d="M1047.3,424.6h15.1v48.9c0,4.5,0.6,8.4,1.9,11.8c1.2,3.4,2.9,6.1,5,8c2.1,1.9,4.4,3.4,6.9,4.3
					c2.5,0.9,5.2,1.4,8.1,1.4c2.9,0,5.6-0.5,8.1-1.4c2.5-0.9,4.8-2.4,7-4.3c2.1-1.9,3.8-4.6,5-8c1.2-3.4,1.8-7.3,1.8-11.8v-48.9
					h15.2v48.9c0,6.1-1.1,11.8-3.2,17c-2.1,5.2-4.9,9.5-8.4,12.9c-3.5,3.4-7.4,6-11.8,7.9c-4.4,1.9-8.9,2.9-13.6,2.9
					c-4.6,0-9.2-1-13.6-2.9c-4.4-1.9-8.4-4.5-11.9-7.9c-3.5-3.4-6.3-7.7-8.4-12.9c-2.1-5.2-3.2-10.9-3.2-17V424.6z"/>
				<path class="st0" d="M1193.4,423.5c9.6,0,18.1,3.1,25.5,9.3l5.8,4.8l-9.6,11.6l-5.9-4.8c-5.5-4.6-11.6-6.6-18.2-6
					c-6.7,0.6-12.4,3.8-17.1,9.4c-4.7,5.6-7.1,12.4-7,20.1c0.1,7.8,2.5,14.4,7.4,20c4.7,5.4,10.5,8.3,17.3,8.8
					c6.7,0.5,12.8-1.5,18.1-6.2l5.7-4.9l9.9,11.4l-5.7,4.9c-4.1,3.5-8.6,6.2-13.7,7.9c-5,1.7-10.2,2.4-15.5,2
					c-5.3-0.4-10.3-1.8-15.1-4.3c-4.7-2.4-8.9-5.7-12.5-9.8c-7.3-8.4-11.1-18.3-11.2-29.7c-0.1-11.4,3.4-21.4,10.6-30
					c4-4.7,8.7-8.4,14.2-10.9C1181.9,424.8,1187.5,423.5,1193.4,423.5z"/>
				<path class="st0" d="M1280.8,424.3h16.2l32.9,86.9h-16.2l-5.5-14.6c-5.7,0.4-11.3-0.1-16.9-1.5c-5.6-1.4-11.9-3.5-18.9-6.3
					l-8.5,22.4h-16.2l10.6-28c-12.4-4.7-23-6.7-31.8-6.2l-0.8-14.8c5.5-0.5,11.3-0.1,17.3,1.4c6,1.4,12.8,3.6,20.3,6.6L1280.8,424.3
					z M1277.4,475.8c10.9,4.3,19.5,6.5,25.5,6.8l-14-37L1277.4,475.8z"/>
			</g>
			<g>
				<path class="st0" d="M36.4,425.2h15.1c0,4.9,1.5,10,4.6,15.5c3.1,5.4,7.5,11.8,13.3,19.1c0.5,0.7,1.7,2.1,3.4,4.2
					c1.7,2.1,3,3.7,3.8,4.8c0.8,1.1,1.9,2.5,3.2,4.2c1.3,1.7,2.4,3.3,3.3,4.8c0.9-1.5,2-3.1,3.3-4.8c1.2-1.7,2.3-3.1,3.2-4.2
					c0.9-1.1,2.1-2.7,3.8-4.8c1.7-2.1,2.8-3.5,3.4-4.2c5.7-7.3,10.1-13.6,13.2-19.1c3.1-5.4,4.6-10.6,4.6-15.5h15.1v86.7h-15.1
					v-50.5c-1.3,1.7-3.3,4.3-6,7.7c-5.9,7.3-10.3,13.5-13.4,18.4c-3,4.9-4.6,9.1-4.6,12.7H75.5c0-3.5-1.5-7.8-4.6-12.7
					c-3-4.9-7.5-11-13.3-18.4c-2.7-3.4-4.8-6-6.1-7.7v50.5H36.4V425.2z"/>
				<path class="st0" d="M144.7,425.2h15.1v86.7h-15.1V425.2z"/>
				<path class="st0" d="M174.8,425.2h29.5c4.5,0,8.6,0.8,12.5,2.5c3.8,1.6,7,3.8,9.6,6.5c2.5,2.7,4.5,5.7,6,9.1
					c1.4,3.4,2.2,6.8,2.2,10.4c0,4.9-1.3,9.6-4,14.1c-2.7,4.5-6.3,8-10.9,10.5c0.5,0.8,1.3,2,2.2,3.5c0.9,1.5,1.6,2.6,1.9,3.2
					c3.1,4.7,5.8,8.1,8.1,10c2.9,2.3,6.1,3.5,9.6,3.5v15.1c-7.2,0-13.7-2.3-19.3-7c-3.5-2.9-7.1-7.4-11-13.4
					c-3.9-6.1-6.4-9.7-7.4-10.8c-0.1-0.1-0.2-0.2-0.3-0.3h-13.4v30h-15.1v-71.6v-14.5V425.2z M189.9,466.8h14.4
					c5.3,0,9.2-1.2,11.5-3.7c2.3-2.5,3.5-5.6,3.5-9.5c0-3.8-1.2-7-3.5-9.5c-2.3-2.5-6.2-3.8-11.5-3.8h-14.4V466.8z"/>
				<path class="st0" d="M285,425.2h16.2l32.9,86.9h-16.2l-7.1-18.8c-1.5,0.2-3,0.3-4.6,0.4c-1.6,0.1-3,0.1-4.2,0.2
					c-1.2,0-2.7,0-4.5-0.1c-1.8-0.1-3.1-0.2-4-0.3c-0.9-0.1-2.3-0.2-4.3-0.5c-2-0.2-3.3-0.4-3.9-0.5c-0.6-0.1-2-0.3-4.2-0.7
					s-3.5-0.5-3.9-0.5c-0.4-0.1-0.8-0.1-1.2-0.2l-7.9,20.9h-16.2L285,425.2z M305.2,478.6l-12.1-32l-11.5,30.1
					c3.9,0.6,6.7,1,8.6,1.3c1.8,0.2,4.2,0.4,7.1,0.6C300.1,478.7,302.8,478.7,305.2,478.6z"/>
				<path class="st0" d="M346.2,511.8h-0.1v-86.6l1.2,0.1h20.5c6.9,0,13.2,1.2,19.1,3.7c5.8,2.5,10.7,5.7,14.5,9.8
					c3.8,4.1,6.8,8.7,9,13.8c2.2,5.1,3.3,10.4,3.4,15.8c0.1,5.5-0.9,10.9-2.8,16.1c-1.9,5.2-4.8,9.8-8.6,13.9c-4,4.2-9,7.5-14.9,9.9
					c-5.9,2.4-12.4,3.6-19.6,3.6h-21.6V511.8z M361.3,496.8h6.5c10.1,0,17.9-2.9,23.4-8.8c4.9-5.2,7.4-11.6,7.3-19.3
					c-0.1-3.7-0.7-7.2-2-10.5c-1.2-3.3-3.1-6.3-5.5-9c-2.4-2.7-5.6-4.8-9.6-6.4c-4-1.6-8.6-2.4-13.7-2.4h-6.5V496.8z"/>
				<path class="st0" d="M447.2,431.5c6.4-4,13.4-6,21-6c7.6,0,14.6,2,21,6c6.4,4,11.4,9.4,15.1,16.2c3.7,6.8,5.5,14.2,5.5,22
					c0,5.9-1,11.5-3.1,16.9c-2.1,5.4-5,10.1-8.9,14.3c-3.9,4.2-8.4,7.5-13.5,9.8c-5.1,2.3-10.5,3.5-16.1,3.5s-10.9-1.2-16.1-3.5
					c-5.1-2.3-9.6-5.6-13.5-9.8c-3.9-4.1-6.8-8.9-8.9-14.3c-2.1-5.4-3.1-11-3.1-16.9c0-7.9,1.8-15.2,5.5-22
					C435.7,440.9,440.8,435.5,447.2,431.5z M486.8,449.1c-5.2-5.6-11.4-8.5-18.7-8.5c-7.2,0-13.5,2.8-18.7,8.5
					c-5.2,5.6-7.8,12.5-7.8,20.7c0,3.9,0.7,7.7,2.1,11.4c1.4,3.6,3.4,6.8,5.9,9.6c5.1,5.5,11.3,8.3,18.5,8.3
					c7.2,0,13.4-2.8,18.6-8.3c2.5-2.7,4.4-5.9,5.8-9.6c1.4-3.6,2.1-7.4,2.1-11.4C494.6,461.6,492,454.7,486.8,449.1z"/>
				<path class="st0" d="M522.8,425.2h29.5c4.5,0,8.6,0.8,12.5,2.5c3.8,1.6,7,3.8,9.6,6.5c2.5,2.7,4.5,5.7,6,9.1
					c1.4,3.4,2.2,6.8,2.2,10.4c0,4.9-1.3,9.6-4,14.1c-2.7,4.5-6.3,8-10.9,10.5c0.5,0.8,1.3,2,2.2,3.5s1.6,2.6,1.9,3.2
					c3.1,4.7,5.8,8.1,8.1,10c2.9,2.3,6.1,3.5,9.6,3.5v15.1c-7.2,0-13.7-2.3-19.3-7c-3.5-2.9-7.1-7.4-11-13.4
					c-3.9-6.1-6.4-9.7-7.4-10.8c-0.1-0.1-0.2-0.2-0.3-0.3h-13.4v30h-15.1v-71.6v-14.5V425.2z M537.9,466.8h14.4
					c5.3,0,9.2-1.2,11.5-3.7c2.3-2.5,3.5-5.6,3.5-9.5c0-3.8-1.2-7-3.5-9.5c-2.3-2.5-6.2-3.8-11.5-3.8h-14.4V466.8z"/>
			</g>
		</g>
		<g>
			<rect x="36.4" y="537.5" class="st0" width="1293.6" height="3.9"/>
		</g>
	</g>
	<g>
		<g>
			<path class="st0" d="M762.2,144.3c7.6-4,15.4-6.8,23.1-8.2c0.5-0.1,1-0.2,1.5-0.2c-25.9-18.8-57.8-29.9-92.3-29.9
				c-29.9,0-57.9,8.3-81.7,22.8c16.9,0.5,38.2,3.8,63.5,12.7C725.6,159,752.8,149.3,762.2,144.3z"/>
		</g>
		<g>
			<path class="st0" d="M589,196c27.9,4.4,55.8,20.8,73,31.9c24.7-26,29.6-26,32.5-26c9.3,0,19.9,14,23,18.3c1.3,1.8,3.1,3.2,5.3,4
				c7.9-5.2,53.8-34.5,86.5-31c11.6,1.2,21.4,3.9,29.6,7.2c-8.8-20.1-21.7-38-37.6-52.7c-4.5,0.1-9.1,0.6-13.5,1.4
				c-6.4,1.2-12.9,3.5-19.3,6.9c-6.4,3.4-19.8,8.7-40.6,8.7c-14.8,0-33.5-2.7-56.1-10.7c-35-12.4-61.8-13-78.6-11.2
				c-17.7,14.9-32,33.5-41.8,54.7C562.4,195.1,575.4,193.8,589,196z"/>
		</g>
		<g>
			<path class="st0" d="M571.8,265.9l5.9-1.3c0.6-0.1,1.1-0.4,1.5-0.9c19.8-21.9,25.6-21.5,28.4-21.4c5.8,0.3,15.7,5.6,21.6,9
				c1.3-1.2,3.2-3.2,6.1-6.5c3.1-3.6,6.9-6.4,11.2-8.4l2.4-1.1c-16.3-10.1-39.5-22.7-62-26.3c-15.6-2.5-30.4,0.4-41.7,3.9
				c-5.3,15.8-8.2,32.8-8.2,50.4c0,6.8,0.4,13.5,1.3,20.1l23.8-13.9C565.1,267.9,568.4,266.6,571.8,265.9z"/>
		</g>
		<g>
			<path class="st0" d="M737.6,230.5c2.6,1.6,5.2,3.6,7.7,6c4.2,4.1,7.2,8.9,9.9,13.2c6.1,9.8,7.9,11.1,12.7,9.5
				c1-0.6,6.9-3.9,19.9-15.2c2.8-3.5,9.4-8.4,18.8-7.3c1.1,0.1,2.2,0.3,3.3,0.4c6.8,0.9,14.6,1.8,18.5-1.5c3.5-3,8.5-3.9,14.2-2.6
				c2.2,0.5,4.6,1.4,6.9,2.6c-1-5.9-2.4-11.6-4.1-17.2c-8.5-5.1-20.9-10.3-37.6-12C785.2,204,752.9,221.3,737.6,230.5z"/>
		</g>
		<g>
			<path class="st0" d="M642.1,361.1c2.8-1.2,4.7-2.4,5.9-3.3c1.3-1,0.7-3.2-1-3.4c-11.5-1.3-48.2-6.1-43.1-16.3
				c5-10,30.7-14.5,54.8-22.6c5.9-2-29.1-9.9-30.3-12.1c-6.1-10.3,91.6-3,104,15.6c0,0,7.4,6.6-30,14.4c-1.5,0.3-1.8,2.3-0.5,3
				c4.2,2.4,13.1,1.5,56.2,4.5c44.2,3,59.1,13.7,39.3,20.2H818c21.2-26.8,33.9-60.7,33.9-97.6c0-3.2-0.1-6.5-0.3-9.6
				c-5-5.6-12.3-8.9-14.7-8.1c-8.3,7.1-19.6,5.7-28.7,4.6c-1.1-0.1-2.1-0.3-3.2-0.4c-4.3-0.5-6.6,1.9-7,2.5l-0.5,0.8l-0.6,0.4
				c-16.3,14.1-22.7,17.3-23.9,17.8l-0.4,0.2c-15.9,5.8-23.3-6.1-28.8-14.8c-2.4-3.8-4.9-7.7-7.9-10.7c-5.3-5.2-11.3-7.5-15.4-8.6
				c-5.7-1.5-10.8-4.9-14.1-9.6c-4.4-6.2-9.5-11-11.9-12.4c-2.8,1.7-10.1,7.8-23.6,22c-2.4,2.5-5.2,4.5-8.4,6l-10.6,4.9
				c-2.6,1.2-4.9,2.9-6.8,5.1c-9.5,10.8-12.7,12.5-16.3,12.2c-1.1-0.1-2.2-0.5-3.2-1.1c-7.2-4.4-15.4-8.4-18.4-9
				c-2.3,1.1-8.6,6.2-18.3,16.9c-2.3,2.5-5.2,4.2-8.5,4.9l-5.9,1.3c-2.1,0.5-4.1,1.3-6,2.3l-28.1,16.3c5.2,23.6,15.7,45.2,30.2,63.6
				H642.1z"/>
		</g>
	</g>
</g>
</svg>
